PathFileType	4	(X/Y/Z)	E:\3-PhD\Data\MocapData\ElaboratedData\012\pre\dynamicElaborations\RunL1\RunL1.trc
DataRate	CameraRate	NumFrames	NumMarkers	Units	OrigDataRate	OrigDataStartFrame	OrigNumFrames
200	200	4	56	mm	200	699	123
Frame#	Time	FHD			LBHD			RBHD			C7			T10			CLAV			LSHO			LUUPA			LMUPA			LDUPA			LLEP			LMEP			LRAD			LUL			LRFIN			RSHO			RUPA1			RMUPA			RDUPA			RLEP			RMEP			RRAD			RUL			RUFIN			LASI			RASI			USACR			LSACR			RSACR			LTHI1			LTHI2			LTHI3			LTHI4			LLFC			LTIB1			LTIB2			LTIB3			LTIB4			LHEE			LMT1			LMT5			LMT2			RTHI			RTHI2			RTHI3			RTHI4			RLFC			RTIB1			RTIB2			RTIB3			RTIB4			RLMAL			RHEE			RMT1			RMT2			RMT5		
		X1	Y1	Z1	X2	Y2	Z2	X3	Y3	Z3	X4	Y4	Z4	X5	Y5	Z5	X6	Y6	Z6	X7	Y7	Z7	X8	Y8	Z8	X9	Y9	Z9	X10	Y10	Z10	X11	Y11	Z11	X12	Y12	Z12	X13	Y13	Z13	X14	Y14	Z14	X15	Y15	Z15	X16	Y16	Z16	X17	Y17	Z17	X18	Y18	Z18	X19	Y19	Z19	X20	Y20	Z20	X21	Y21	Z21	X22	Y22	Z22	X23	Y23	Z23	X24	Y24	Z24	X25	Y25	Z25	X26	Y26	Z26	X27	Y27	Z27	X28	Y28	Z28	X29	Y29	Z29	X30	Y30	Z30	X31	Y31	Z31	X32	Y32	Z32	X33	Y33	Z33	X34	Y34	Z34	X35	Y35	Z35	X36	Y36	Z36	X37	Y37	Z37	X38	Y38	Z38	X39	Y39	Z39	X40	Y40	Z40	X41	Y41	Z41	X42	Y42	Z42	X43	Y43	Z43	X44	Y44	Z44	X45	Y45	Z45	X46	Y46	Z46	X47	Y47	Z47	X48	Y48	Z48	X49	Y49	Z49	X50	Y50	Z50	X51	Y51	Z51	X52	Y52	Z52	X53	Y53	Z53	X54	Y54	Z54	X55	Y55	Z55	X56	Y56	Z56	
699	3.490000	-1047.413402	1745.546137	384.275626	-1205.907041	1779.963284	292.416578	-1186.943988	1757.126104	442.430208	-1292.329981	1596.373431	385.970694	-1431.726058	1271.971522	385.075986	-1192.966701	1482.136886	335.151618	-1254.860948	1605.312346	209.969473	-1442.010584	1515.566324	110.675753	-1435.018374	1470.247509	91.289201	-1496.495580	1474.841104	94.318194	-1542.489317	1403.011927	67.147306	-1550.828917	1374.352434	158.680367	-1333.783140	1217.988097	56.764222	-1386.526019	1183.793133	8.501462	-1275.013655	1153.408675	29.875962	-1170.569339	1527.782819	514.833561	-1327.626923	1398.127716	639.294186	-1304.843615	1356.367175	649.886880	-1360.164428	1340.581897	660.967074	-1388.898953	1273.735501	678.099154	-1433.604050	1260.569378	604.647366	-1166.838251	1214.841444	525.417312	-1166.159093	1142.266382	553.416225	-1086.671883	1187.260650	492.868962	-1330.485846	1029.540874	228.215086	-1314.455119	1005.079098	453.564135	-1477.867458	1140.129263	366.375575	-1497.004313	1111.497556	338.566339	-1487.646619	1110.059101	395.558429	-1342.262535	790.520487	145.494685	-1265.902413	747.864532	146.873989	-1229.254419	772.712238	168.866889	-1261.040860	689.034784	154.969010	-1189.027081	552.916964	175.266676	-1107.127524	385.754275	244.920696	-1124.664892	334.260571	178.293009	-1093.390581	338.773629	211.374265	-1076.190982	263.627399	244.072958	-1104.140801	47.207535	266.345132	-922.824050	159.062413	285.867540	-933.300435	124.653957	186.061136	-915.728009	163.616467	230.373092	-1521.019270	723.815187	487.750345	-1510.172809	658.909943	471.469272	-1482.659225	648.514006	458.452928	-1572.535990	605.169478	455.068466	-1643.538180	519.512990	425.500194	-1755.668521	443.278527	383.979499	-1844.117830	497.741471	417.819312	-1840.352961	453.465657	404.513384	-1884.538046	433.665675	372.924803	-2062.866238	471.952342	370.508174	-2096.130363	518.061607	313.833791	-2098.405917	294.746323	309.608499	-2094.527495	297.208731	353.676496	-2122.906752	339.447927	399.300088	
700	3.495000	-1023.976667	1744.124717	384.010347	-1182.019036	1777.771180	291.109991	-1163.947703	1755.126017	441.232848	-1268.079833	1594.454724	384.136488	-1407.292680	1269.390471	383.821414	-1168.658258	1480.104983	334.399660	-1230.349852	1602.321833	207.753311	-1416.304955	1508.602480	108.164533	-1408.159841	1463.445720	88.923460	-1469.662564	1466.522683	91.791157	-1514.194983	1394.169237	64.569243	-1522.754073	1366.265061	156.288836	-1302.313643	1212.752343	58.925878	-1354.043326	1176.659944	11.074013	-1241.714631	1150.206381	32.141343	-1147.098645	1525.692839	514.368289	-1306.088730	1397.466781	637.859525	-1283.598531	1355.694067	648.942116	-1339.102230	1340.149791	659.328529	-1368.298379	1273.290595	676.537912	-1412.660026	1260.318747	602.533022	-1146.140642	1207.552534	526.397420	-1147.498147	1135.298586	555.294169	-1066.520905	1177.268367	494.689410	-1305.466038	1027.424104	227.248950	-1288.366488	1003.364241	452.898832	-1453.063080	1137.011566	366.475760	-1472.190261	1108.333595	338.792869	-1462.623699	1106.945486	395.818317	-1318.210071	787.939328	146.146807	-1242.345105	744.573184	147.159292	-1204.753096	769.414821	167.381587	-1237.974557	685.734246	155.737606	-1167.494350	548.279742	175.065980	-1086.243577	380.651421	244.717492	-1104.724526	328.977739	178.593987	-1072.993743	333.517173	211.226577	-1056.032854	258.413929	244.406114	-1086.522903	44.490836	267.731501	-903.485912	152.466217	285.154669	-915.762041	117.547746	185.827333	-897.173942	156.440009	229.481220	-1492.010038	719.670504	488.194390	-1480.038972	654.806328	472.629670	-1452.271042	644.676224	459.932884	-1541.360476	599.972182	456.221886	-1610.307436	514.598617	426.340069	-1723.943738	441.700384	384.771096	-1810.633962	499.994075	417.144206	-1808.407151	455.559224	404.540825	-1853.042566	437.115536	372.481565	-2029.730246	482.597513	368.602089	-2061.128666	529.411333	311.463600	-2070.689868	306.244085	308.904437	-2066.789719	308.839917	352.998582	-2094.120439	352.386934	398.144436	
701	3.500000	-1000.645104	1742.591135	383.848549	-1158.233890	1775.411037	289.880928	-1141.072132	1752.979959	440.105500	-1243.955830	1592.352632	382.273694	-1382.872797	1266.523521	382.581313	-1144.379916	1477.832235	333.738169	-1205.780105	1599.100602	205.515039	-1390.425390	1501.256499	105.544562	-1381.026100	1456.305810	86.473136	-1442.516969	1457.725319	89.170935	-1485.470141	1384.822747	61.955063	-1494.374439	1357.753973	153.796813	-1270.553454	1207.230541	61.374072	-1321.179803	1169.209855	13.960559	-1208.214808	1146.765617	34.798975	-1123.723260	1523.316003	513.955263	-1284.753906	1396.518277	636.411444	-1262.593659	1354.663791	647.842712	-1318.295835	1339.439159	657.587227	-1347.961866	1272.592169	674.811255	-1391.966811	1259.818933	600.211802	-1125.876931	1199.672073	527.521288	-1129.356211	1127.820279	557.365953	-1046.901794	1166.594726	496.770575	-1280.396264	1025.443501	226.390627	-1262.423832	1001.513474	452.325774	-1428.262308	1133.789710	366.641879	-1447.386589	1105.121985	339.060285	-1437.675564	1103.689448	396.105664	-1294.187587	785.311154	146.950459	-1218.863369	741.181163	147.700449	-1180.333729	765.927722	165.994573	-1214.990296	682.351527	156.627457	-1146.026237	543.594898	174.792354	-1065.968319	375.333661	244.481480	-1085.516125	323.606713	178.828028	-1053.332355	328.016036	211.028210	-1037.054171	252.870599	244.713274	-1071.637671	42.433354	269.022164	-885.916657	144.078422	284.430785	-900.456888	108.990720	185.549031	-880.407582	147.427635	228.586769	-1462.762102	715.293381	488.604188	-1449.569854	650.486770	473.817612	-1421.529633	640.640232	461.419571	-1509.760391	594.497407	457.415295	-1576.527523	509.312988	427.395408	-1691.376155	439.718458	385.684652	-1776.247111	501.502854	416.768038	-1775.489938	457.005029	404.745783	-1820.535265	439.914236	372.082985	-1995.360929	492.171105	366.962991	-2025.028096	539.674506	309.442001	-2041.415749	316.830057	308.275800	-2037.467372	319.509244	352.396845	-2063.788730	364.212075	397.141302	
702	3.505000	-977.415862	1740.978159	383.789567	-1134.547367	1772.929093	288.730088	-1118.311663	1750.723699	439.046098	-1219.966006	1590.089642	380.410380	-1358.470703	1263.408524	381.357501	-1120.121421	1475.338917	333.168743	-1181.156488	1595.673031	203.270758	-1364.338063	1493.560591	102.820197	-1353.610660	1448.847825	83.959034	-1415.044460	1448.512254	86.456984	-1456.298120	1375.011029	59.324119	-1465.691862	1348.855606	151.207696	-1238.506375	1201.479361	64.122063	-1287.931161	1161.522606	17.158047	-1174.526116	1143.122227	37.868110	-1100.454789	1520.698091	513.603615	-1263.613406	1395.278666	634.963606	-1241.816514	1353.264528	646.581277	-1297.730148	1338.443143	655.761290	-1327.863226	1271.653843	672.925670	-1371.469088	1259.079825	597.721823	-1106.060315	1191.249663	528.800147	-1111.740754	1119.883883	559.612364	-1027.841384	1155.319374	499.117789	-1255.329609	1023.587084	225.663192	-1236.645084	999.513162	451.836349	-1403.492382	1130.512511	366.875047	-1422.637848	1101.910876	339.371038	-1412.828556	1100.333685	396.416692	-1270.293900	782.693951	147.753868	-1195.516343	737.790673	148.345131	-1156.138620	762.328716	164.724512	-1192.131154	678.989209	157.453746	-1124.547927	539.027202	174.397344	-1046.235988	370.003791	244.209521	-1066.898614	318.361334	178.962125	-1034.308020	322.477228	210.784345	-1019.177916	247.219249	244.979141	-1059.361667	41.189282	270.175819	-870.107835	134.124919	283.776213	-887.286377	99.252326	185.277742	-865.358609	136.788059	227.777780	-1433.262457	710.700302	488.979433	-1418.756190	645.976872	475.010602	-1390.425820	636.441237	462.892771	-1477.719393	588.769826	458.613097	-1542.208847	503.668964	428.644630	-1657.982117	437.356657	386.679122	-1741.005506	502.276192	416.692566	-1741.637536	457.797821	405.111033	-1787.055263	442.054499	371.719597	-1959.860073	500.643690	365.613788	-1987.994482	548.811603	307.795244	-2010.596852	326.419882	307.759478	-2006.563862	329.139537	351.901408	-2031.920743	374.829375	396.343272	
